# xmcd
# 
# Track frame offsets:
#     150
#     34282
#     55442
#     62550
#     95492
#     119592
# 
# Disc length: 1863
# 
# Revision: 3
# Processed by: cddbd v1.5.2PL0 Copyright (c) Steve Scherf et al.
# Submitted via: fre:ac v1.0.17
# 
DISCID=54074506
DTITLE=King Crimson - Vroom
DYEAR=1994
DGENRE=Progressive Rock
TTITLE0=Vroom
TTITLE1=Sex Sleep Eat Drink Dream
TTITLE2=Cage
TTITLE3=Thrak
TTITLE4=When I Say Stop, Continue
TTITLE5=One Time
EXTD=
EXTT0=
EXTT1=
EXTT2=
EXTT3=
EXTT4=
EXTT5=
PLAYORDER=
